<svg width="16" height="16" viewBox="0 0 16 16" fill="none" xmlns="http://www.w3.org/2000/svg">
<g clip-path="url(#clip0_1406_1451)">
<path d="M1.6665 5.00033V9.00033C1.6665 11.5143 1.6665 12.7717 2.4465 13.5523C3.2285 14.3337 4.48584 14.3337 6.99984 14.3337H9.33317M1.6665 5.00033L2.5785 3.54366C3.1525 2.62633 3.4405 2.16766 3.8925 1.91699C4.3445 1.66699 4.88584 1.66699 5.9685 1.66699H10.0685C11.1752 1.66699 11.7278 1.66699 12.1865 1.92633C12.6452 2.18633 12.9292 2.66033 13.4985 3.60899L14.3332 5.00033M1.6665 5.00033H14.3332M14.3332 9.33366V5.00033M7.99984 5.00033V1.66699M10.6665 9.66699C10.6665 9.66699 8.99984 10.8943 8.99984 11.3337C8.99984 11.773 10.6665 13.0003 10.6665 13.0003M9.33317 11.3337H12.8332C13.231 11.3337 13.6125 11.4917 13.8938 11.773C14.1751 12.0543 14.3332 12.4358 14.3332 12.8337C14.3332 13.2315 14.1751 13.613 13.8938 13.8943C13.6125 14.1756 13.231 14.3337 12.8332 14.3337H12.3332M6.6665 7.00033H9.33317" stroke="black" stroke-width="1.5" stroke-linecap="round" stroke-linejoin="round"/>
</g>
<defs>
<clipPath id="clip0_1406_1451">
<rect width="16" height="16" fill="white"/>
</clipPath>
</defs>
</svg>
