<svg width="14" height="14" viewBox="0 0 14 14" fill="none" xmlns="http://www.w3.org/2000/svg">
<path fill-rule="evenodd" clip-rule="evenodd" d="M10.2111 2.53555C9.31962 1.89393 8.25644 1.53396 7.15855 1.50205C6.06067 1.47013 4.97837 1.76771 4.05114 2.35646C3.12391 2.9452 2.39423 3.79813 1.95613 4.80533C1.51803 5.81252 1.39158 6.92784 1.59308 8.00755C1.62628 8.20153 1.5819 8.40078 1.46952 8.56234C1.35714 8.7239 1.18576 8.83481 0.992345 8.87116C0.79893 8.90751 0.598979 8.86637 0.435615 8.75664C0.272252 8.6469 0.158566 8.47734 0.119079 8.28455C-0.141516 6.88991 0.0278909 5.449 0.604842 4.15283C1.18179 2.85666 2.13904 1.76644 3.3497 1.02669C4.56036 0.286929 5.96725 -0.0674253 7.38388 0.0105931C8.80051 0.0886115 10.16 0.595319 11.2821 1.46355L11.8941 0.851547C11.9639 0.7815 12.053 0.733757 12.15 0.714358C12.2471 0.69496 12.3476 0.704779 12.4391 0.742572C12.5305 0.780366 12.6087 0.844435 12.6637 0.92667C12.7187 1.00891 12.7481 1.10561 12.7481 1.20455V3.49755C12.7481 3.63015 12.6954 3.75733 12.6016 3.8511C12.5079 3.94487 12.3807 3.99755 12.2481 3.99755H9.95508C9.85635 3.99733 9.75989 3.96789 9.67787 3.91293C9.59585 3.85798 9.53193 3.77997 9.49418 3.68874C9.45643 3.59751 9.44653 3.49715 9.46573 3.40031C9.48493 3.30346 9.53237 3.21447 9.60208 3.14455L10.2111 2.53555ZM13.0021 5.11255C13.1975 5.07568 13.3996 5.11798 13.5639 5.23012C13.7282 5.34227 13.8412 5.51508 13.8781 5.71055C14.1389 7.10535 13.9696 8.54649 13.3926 9.84287C12.8156 11.1393 11.8582 12.2296 10.6474 12.9695C9.43653 13.7093 8.0294 14.0636 6.61257 13.9854C5.19575 13.9071 3.83616 13.4001 2.71408 12.5315L2.10208 13.1445C2.03215 13.2147 1.94298 13.2624 1.84587 13.2818C1.74876 13.3012 1.64809 13.2912 1.55662 13.2533C1.46514 13.2154 1.38699 13.1512 1.33206 13.0688C1.27713 12.9864 1.2479 12.8896 1.24808 12.7905V10.4975C1.24808 10.3649 1.30076 10.2378 1.39453 10.144C1.48829 10.0502 1.61547 9.99755 1.74808 9.99755H4.04108C4.1401 9.99737 4.23694 10.0266 4.31933 10.0815C4.40172 10.1365 4.46595 10.2146 4.50386 10.3061C4.54178 10.3976 4.55168 10.4982 4.53232 10.5953C4.51295 10.6924 4.46519 10.7816 4.39508 10.8515L3.78508 11.4605C4.67654 12.1022 5.73971 12.4621 6.8376 12.494C7.93549 12.526 9.01778 12.2284 9.94501 11.6396C10.8722 11.0509 11.6019 10.198 12.04 9.19077C12.4781 8.18357 12.6046 7.06826 12.4031 5.98855C12.3848 5.89162 12.3859 5.79205 12.4062 5.69554C12.4265 5.59903 12.4656 5.50747 12.5214 5.4261C12.5771 5.34473 12.6483 5.27515 12.731 5.22135C12.8137 5.16754 12.9061 5.13057 13.0031 5.11255H13.0021ZM7.62508 3.65455C7.62508 3.45563 7.54606 3.26487 7.40541 3.12422C7.26476 2.98356 7.07399 2.90455 6.87508 2.90455C6.67617 2.90455 6.4854 2.98356 6.34475 3.12422C6.2041 3.26487 6.12508 3.45563 6.12508 3.65455V3.99755C5.73412 4.06223 5.37793 4.26115 5.11779 4.56009C4.85766 4.85902 4.70984 5.23927 4.69978 5.63542C4.68971 6.03156 4.81803 6.41883 5.06265 6.73059C5.30728 7.04234 5.65291 7.2591 6.04008 7.34355L7.30008 7.61855C7.3748 7.6375 7.44016 7.68278 7.48416 7.74608C7.52816 7.80938 7.54783 7.88643 7.53956 7.96307C7.53128 8.0397 7.49563 8.11078 7.43914 8.16323C7.38265 8.21568 7.30912 8.24598 7.23208 8.24855H6.51808C6.45236 8.2483 6.3883 8.22781 6.33463 8.18988C6.28095 8.15195 6.24026 8.09841 6.21808 8.03655C6.18525 7.94364 6.13444 7.8581 6.06855 7.78483C6.00267 7.71155 5.92299 7.65197 5.83408 7.60949C5.74517 7.56701 5.64876 7.54245 5.55036 7.53723C5.45196 7.53201 5.35349 7.54622 5.26058 7.57905C5.16767 7.61188 5.08213 7.66269 5.00886 7.72857C4.93559 7.79446 4.87601 7.87413 4.83352 7.96305C4.79104 8.05196 4.76649 8.14837 4.76126 8.24677C4.75604 8.34517 4.77025 8.44364 4.80308 8.53655C4.90597 8.82759 5.0812 9.08768 5.31229 9.29236C5.54338 9.49703 5.82274 9.63956 6.12408 9.70655V10.0685C6.12408 10.2675 6.2031 10.4582 6.34375 10.5989C6.4844 10.7395 6.67517 10.8185 6.87408 10.8185C7.07299 10.8185 7.26376 10.7395 7.40441 10.5989C7.54506 10.4582 7.62408 10.2675 7.62408 10.0685V9.70655C8.02803 9.61601 8.38904 9.39047 8.64756 9.06714C8.90607 8.74381 9.04663 8.34201 9.04605 7.92804C9.04547 7.51407 8.90378 7.11267 8.64435 6.79007C8.38493 6.46747 8.02328 6.24294 7.61908 6.15355L6.35908 5.87755C6.31019 5.86652 6.26707 5.83788 6.23794 5.79709C6.20882 5.75631 6.19572 5.70623 6.20116 5.6564C6.2066 5.60658 6.23019 5.5605 6.26744 5.52696C6.30468 5.49342 6.35296 5.47476 6.40308 5.47455H7.23108C7.2968 5.4748 7.36085 5.49528 7.41453 5.53321C7.4682 5.57114 7.5089 5.62468 7.53108 5.68655C7.59738 5.87419 7.73551 6.0278 7.91508 6.1136C8.00399 6.15608 8.1004 6.18064 8.1988 6.18586C8.2972 6.19109 8.39567 6.17688 8.48858 6.14405C8.58149 6.11122 8.66702 6.06041 8.7403 5.99452C8.81357 5.92863 8.87315 5.84896 8.91563 5.76005C8.95812 5.67114 8.98267 5.57473 8.98789 5.47633C8.99312 5.37792 8.97891 5.27946 8.94608 5.18655C8.84309 4.89538 8.66771 4.63521 8.43644 4.43053C8.20516 4.22584 7.9256 4.08338 7.62408 4.01655V3.65655L7.62508 3.65455Z" fill="black"/>
</svg>
